<svg version="1.2" xmlns="http://www.w3.org/2000/svg" viewBox="0 0 4000 4000" width="4000" height="4000">
	<style>
		.s0 { fill: #2374af } 
		.s1 { fill: #010101 } 
		.s2 { fill: #020101 } 
		.s3 { fill: #2475af } 
		.s4 { fill: #2675af } 
	</style>
	<path fill-rule="evenodd" class="s0" d="m417.73 1580.68c44.99-27.34 94.34-47.88 141.34-70.81 49.21-24.01 97.4-50.67 146.91-73.92 112.91-53.01 221.27-117.5 334.04-170.69 87.81-41.41 174.76-88.6 260.36-135.17 57.6-31.34 118.18-70.38 179.96-90.65 29.26 66.11 49.36 138.63 72.49 207.53 5.66 16.88 11.18 33.91 17.36 50.59 2.07 5.57 6.87 15.16 2.98 20.42-193.48 93.13-384.68 193.96-576 292.35-53.97 27.75-108.79 53.64-162.33 82.4-19.58 10.53-49.95 19.21-64.02 37.26 61.95 40.44 132.45 68.94 197.54 103.26 133.9 70.61 268.47 139.99 402.35 210.5-11.95 59.14-34.07 117.42-50.39 175.36-8.83 31.35-14.71 67.05-27.99 96.46-39.49-12.25-78.16-37.32-115.21-56.51-58.97-30.52-118.58-59.57-177.25-90.84-192.33-102.55-385.78-204.61-580.62-301.41-4.42-26.81-0.91-57.88-1.23-85.26-0.8-66.95 0.52-133.93-0.29-200.87z"/>
	<path fill-rule="evenodd" class="s1" d="m896.43 1077.48c1.16-233.6 0.65-467.38 0.49-701.05-0.08-122.94 5.46-247.53-0.56-370.25 151.7-11.6 307.13-2.42 459.19-2.34 54.86 0.02 114.14 7.73 168.49 0.12 5.2 32.97 0.15 71.52 0.28 105.09 0.27 75.87 0.36 151.73 0.44 227.59q0.12 145.06-0.17 290.09c-0.09 47.41 5.15 99.04-0.99 145.92-13.61 12.56-38.32 19.41-54.65 27.5-34.12 16.89-67.97 34.46-102.11 51.33-107.42 53.09-213.76 108.79-321.49 161.2-36.5 17.76-72.57 36.43-108.86 54.61-9.35 4.69-30.74 21.99-40.16 15.52q0.05-2.66 0.1-5.33z"/>
	<path fill-rule="evenodd" class="s1" d="m895.79 2414.1c3.37-14.35-5.04-17.53 12.85-9.87 79.68 35.94 156.36 81.73 234.44 121.72 24.8 12.71 49.2 26.38 74.2 38.61 14.58 7.12 32.81 13.33 44.46 25.57-13.48 55.78-36.18 108.92-52.72 163.75-5.15 17.09-20.2 45.65-18.36 63.07 35.46 7.9 69.26 23.83 103.84 35.37 76.93 25.67 152.98 54.48 229.51 81.35 4.41 62.76 0.45 127.3 0.51 190.29 0.02 25.53 6.8 63.98-1.28 88.08-5.22 15.57-25.07 30.71-35.53 42.44-29.44 33.05-58.66 66.29-88.38 99.05-100.69 111.03-200.41 223.12-300.11 335.22-50.05 56.28-101.78 110.79-151.61 167.32-12.02 13.63-24.2 27.31-36.78 40.29-4.21 4.34-7.69 10.78-13.76 9.44 11.58-496.87-10.73-994.85-1.28-1491.7z"/>
	<path fill-rule="evenodd" class="s2" d="m993.59 3996.42c17.1-11.72 30.58-34.33 44.82-50.13 31.86-35.33 63.99-70.39 95.7-105.88 101.38-113.55 201.87-228.03 303.67-341.14q50.46-56.07 100.84-112.23c13.01-14.51 29.22-41.43 45.86-49.7 442.2 0.99 884.45 1.49 1326.67 1.14 118.34-0.09 236.66 0.44 354.99 0.27 31.33-0.04 62.66 0.14 94 0.11 10.33 0 31.49-4.38 40.01 1.37 11.23 218.6-4.86 439.21 0.4 658-161.17-4.29-322.95 0.07-484.2-0.19-351.5-0.55-703-0.46-1054.5-0.46-189.67 0-379.34 0.24-569.01 0.03-97.93-0.1-202.05-10.8-299.01 2.39q-0.11-1.79-0.24-3.58z"/>
	<path fill-rule="evenodd" class="s3" d="m1406.85 2675.05c14.92-41.31 22.37-87.81 32.74-130.77 13.46-55.66 28.67-110.87 42.16-166.53 46.74-192.99 95.24-386.17 146.04-577.95 61.1-230.65 113.57-464.23 177.27-694.06 35.55-128.26 65.97-258.24 98.13-387.55 20.01-80.45 43.67-160.36 61.33-241.41 55.52 12.51 110.16 32.19 164.83 48.55 37.15 11.11 77.61 18.67 113.27 34.45 1.65 14.55-8.99 38.67-12.43 53.08q-15.68 65.43-31.9 130.68c-38.95 156.86-78.25 313.66-118.88 470.01-135.53 521.52-267.7 1044.26-397.6 1567.41-6.03 1.96-13.32-2.58-19.05-4.65-16.51-5.96-33.25-11.27-49.96-16.52-67.4-21.18-140.31-40.21-205.03-69.5-4.19-5.66-2.33-8.47-0.92-15.24z"/>
	<path fill-rule="evenodd" class="s4" d="m2408.31 1344.2c29.13-88.67 60.16-176.86 88.47-265.82 46.95 12.62 96.15 45.98 139.63 69.24 88.1 47.16 177.07 92.71 265.62 138.85 146.57 76.35 293.41 152.16 439.69 229.19 78.21 41.2 161.89 77.2 236.68 125.33 7.61 20.88 1.9 60.87 1.99 83.61 0.15 45.5 0.23 90.99 0 136.49-0.11 20.73 2.65 43.69-1.33 64.02-20 17.23-49.49 25.53-72.39 37.69-57.29 30.43-114.96 60.72-173.2 88.9-191.22 92.53-378.32 196.21-568.05 292.27-64.16 32.48-129.56 62.97-193.16 96.63-15.34 8.12-31.65 14.25-46.68 22.93-5.93 3.42-12.93 10.16-19.03 6.5-20.54-62.91-44.42-124.66-67.12-186.68-9.14-24.98-30-60.52-31.7-86.71 25.54-8.81 49.86-24.86 74.48-36.54 53.03-25.19 105.17-52.12 157.64-78.57 134.2-67.67 268.69-134.58 402.3-203.55 48.48-25.01 97.87-48.12 145.98-73.97 12.22-6.56 24.76-12.88 37.17-19.05 2.53-1.28 9.82-2.5 9.44-6.05-66.92-42.28-141.59-73.52-211.52-109.62-134.91-69.62-269.95-139.07-404.45-209.67-46.84-24.57-93.68-49.11-140.65-73.39-22.76-11.78-50.95-21.23-71.47-36.76q0.83-2.63 1.66-5.27z"/>
</svg>