<svg version="1.2" xmlns="http://www.w3.org/2000/svg" viewBox="0 0 4000 4000" width="4000" height="4000">
	<style>
		.s0 { fill: #3d3c3d } 
		.s1 { fill: #2b2b2c } 
		.s2 { fill: #63656a } 
		.s3 { fill: #1b8bd8 } 
		.s4 { fill: #186ea5 } 
		.s5 { fill: #38abe2 } 
	</style>
	<path fill-rule="evenodd" class="s0" d="m7.01 1243.82c83.36-62.03 176.05-119.23 264.4-177.38 111.94-73.7 220.36-150.67 330.78-225.62 93.83-63.69 192.04-124.04 284.98-188.51 209.31-145.2 423.82-286.55 636.84-428.8 75.72-50.56 150.8-101.63 226.98-151.81 35.89-23.66 68.13-49.8 106.23-71.7 6.6 23.13 2.26 47.41 2.17 70.91-0.19 46.82-0.48 93.65-0.43 140.47 0.15 147.92 0.52 295.84 0.47 443.76-0.06 200.32-1.23 400.66-0.5 601 0.24 67.4 0.53 134.81 0.2 202.21-0.16 32.37 6.48 69.29-2.24 100.98-8.8 11.91-29.19 19.94-42.84 28.78-25.43 16.48-50.5 33.65-75.47 50.52-98.29 66.39-199.81 130.25-297.86 196.79-332.15 225.43-664.34 451.37-1000.25 673.76-107.96 71.46-216.39 142.52-323.39 214.72-26.62 17.96-55.3 34.74-80.69 53.64-3.49 2.61-19.74 17.14-26.13 16.06-7.84-1.34-4.68-18.14-4.55-22.31 0.63-20.11 0.29-40.23 0.89-60.34 2.7-91.67 0.61-183.53 0.52-275.23-0.28-277.08-0.48-554.17-1.12-831.26-0.2-82.39-0.55-164.79-1.11-247.18-0.24-34.15-12.17-81.06 2.12-113.46z"/>
	<path fill-rule="evenodd" class="s1" d="m1866.16 2890.69c-14.09-15.77-33.06-25.73-51.13-39.37-43.5-32.86-90.33-62.92-136.09-94.05-118.2-80.43-236.85-161.85-358.71-239.07-12.53-25.04-1.94-66.73-1.97-93.65q-0.12-106.72-0.83-213.44c-0.19-26.25 0-52.47 0.42-78.72 0.19-10.76-3.12-24.07 2.17-34 115.44-84.92 244-163.39 367.6-241.86 42.77-27.16 85.25-54.44 127.2-82.31 16.21-10.78 36.97-20.28 50.67-32.7 13.44 31.05 1.19 77.32 1.23 109.98 0.11 82.39 0.31 164.77 0.02 247.15-0.96 264 3.63 528.12-0.58 792.04z"/>
	<path fill-rule="evenodd" class="s2" d="m1320.23 2518.2c121.86 77.22 240.51 158.64 358.71 239.07 45.76 31.13 92.59 61.19 136.09 94.05 18.07 13.64 37.04 23.6 51.13 39.37 2.99 252.71 1.6 505.55-0.08 758.26-0.5 76.77-0.06 153.54 0.63 230.31 0.35 38.88 4.59 79.16 0.45 117.86-1.45 0.86-27.82-16.98-31.18-19.19-33.47-22.06-65.73-45.17-98.85-67.52-87.79-59.28-173.95-120.18-263.09-178.32-34.68-22.61-67.63-46.55-101.19-70.04-17.9-12.53-40.56-25.16-53.4-40.8-5.87-28.91-1.64-60.92-1.64-90.19 0-54.29 0.09-108.58-0.14-162.87-0.75-174.12-0.52-348.27-0.12-522.39 0.17-74.88 0.82-149.78 0.03-224.67-0.32-29.53-11.16-75.28 2.65-102.93z"/>
	<path fill-rule="evenodd" class="s3" d="m2129.92 6.52c6.92-4.48 28.8 14.21 36.41 19.68 30.74 22.11 62.62 43.28 94.08 64.85 138.19 94.78 281.37 185.76 419.29 280.62 7.4 12.95 3.64 29.43 3.61 43.22-0.07 29.53 0.32 59.05 0.28 88.59-0.14 104.84-0.18 209.7-0.21 314.55-0.13 358.96 7.25 718.43-0.93 1077.3-9.15 12.18-30.73 20.61-44.54 30-40.3 27.44-80.21 55.26-121.07 82.26-90.82 60.04-179.14 122.05-269.92 182.12-35.46 23.47-74.57 60.41-116.36 76.89 5.18-27.08 1.87-56.32 1.92-83.64 0.09-52.43 0.44-104.85 0.5-157.28 0.22-159.15 0.4-318.3-0.07-477.45-1-331.4 0.33-662.81-0.54-994.21-0.49-182.41-6.42-365.2-2.45-547.5z"/>
	<path fill-rule="evenodd" class="s4" d="m3995.29 1626.42c-42.68 22.22-82.56 56.59-121.48 83.35-84.89 58.36-171.99 115.05-257.7 172.77-344.33 231.92-685.61 466.58-1026.77 701.01-112.7 77.45-226.62 153.87-338.84 231.71-25.72 17.85-52.27 35.02-78.1 52.8-7.75 5.32-23.12 19.67-34.74 17.15 8.27-100.87-0.27-203.3-1.58-304.29-0.54-41.25-8.45-87.6 0.17-128.29 20.24-17.79 48.62-31.82 72.1-47.38 55.73-36.94 112.78-73.15 167.05-111.27 200.86-141.07 408.46-276.99 612.42-415.55 233.4-158.57 465.89-318.11 703.56-473.27 65.69-42.88 130.93-86.37 195.87-129.95 34.69-23.27 67.61-49.66 105.43-70.15 7.93 139.11 10.34 282.15 2.61 421.36z"/>
	<path fill-rule="evenodd" class="s5" d="m2137.66 2885.21c11.62 2.52 26.99-11.83 34.74-17.15 25.83-17.78 52.38-34.95 78.1-52.8 112.22-77.84 226.14-154.26 338.84-231.71 341.16-234.43 682.44-469.09 1026.77-701.01 85.71-57.72 172.81-114.41 257.7-172.77 38.92-26.76 78.8-61.13 121.48-83.35-6.01 93.31-0.55 187.85-0.37 281.31 0.35 172.26 0.11 344.52-0.58 516.77-0.3 74.91-1.46 149.81-1.11 224.73 0.15 33.68 9.47 76.14-1.65 108.82-175.14 121.24-358.24 236.47-534.85 356.64-232.35 158.11-463.35 318.68-700.62 472.63-139 90.2-276.04 183.22-411.49 276.29-44.82 30.8-89.21 62.04-134.68 92.33-17.34 11.55-33.73 24.27-52.38 34.67-4.53 2.53-18.88 13.3-21.48 7.9-2.03-125.78 3.23-251.73 3.18-377.59-0.07-245.2-3.3-490.6-1.6-735.71z"/>
</svg>